<svg xmlns="http://www.w3.org/2000/svg" viewBox="0 0 100 100" width="32" height="32">
  <!-- Fond du ballon -->
  <circle cx="50" cy="50" r="45" fill="#FFFFFF" stroke="#000000" stroke-width="2"/>
  
  <!-- Pentagone central -->
  <polygon points="50,20 60,32 55,46 45,46 40,32" fill="#000000"/>
  
  <!-- Hexagones autour du pentagone central -->
  <polygon points="40,32 50,20 38,15 25,25 30,38" fill="none" stroke="#000000" stroke-width="1.5"/>
  <polygon points="60,32 50,20 62,15 75,25 70,38" fill="none" stroke="#000000" stroke-width="1.5"/>
  <polygon points="30,38 25,25 15,35 18,50 35,50 45,46" fill="none" stroke="#000000" stroke-width="1.5"/>
  <polygon points="70,38 75,25 85,35 82,50 65,50 55,46" fill="none" stroke="#000000" stroke-width="1.5"/>
  
  <!-- Partie inférieure -->
  <polygon points="45,46 55,46 65,50 70,65 50,80 30,65 35,50" fill="none" stroke="#000000" stroke-width="1.5"/>
  
</svg>